# xmcd
#
# Track frame offsets:
#	150
#	14395
#	32094
#	45430
#	63077
#	78820
#	93437
#	108247
#	126210
#	140825
#	155827
#	171212
#	187205
#	203942
#	216060
#	229192
#	242675
#	255325
#	274105
#	285150
#
# Disc length: 3981 seconds
#
# Revision: 1
# Processed by: cddbd v1.5.2PL0 Copyright (c) Steve Scherf et al.
# Submitted via: audiograbber 1.83.01
#
DISCID=150f8b14
DTITLE=Record - Record Vol 04
DYEAR=2000
DGENRE=Country
TTITLE0=Magic In your Eyes - Dave Martin
TTITLE1=Bum Down The Barn - Keith Jackson
TTITLE2=The Ride - Danny Edwards
TTITLE3=The Path - Dc Sayner
TTITLE4=She´s Changing - Nat Chavis
TTITLE5=Fiften Years - Ron Younblood
TTITLE6=Little - Misty Down
TTITLE7=Ship The Fools - David Hill
TTITLE8=Taylor Park - Joe Waggoner
TTITLE9=Knock On Wood - Kelly Duncan
TTITLE10=What She Don´t Know - Keith Jackson
TTITLE11=Candel Light And Roses - Danny Edwards
TTITLE12=Anywhere I Hang My Heart - Judy Weldon
TTITLE13=Love Ain´t Hard To Find - Nat Chavis
TTITLE14=That Don´t Stop My Pride - Ron Younblood
TTITLE15=I´m Finding My Way Back - David Hill
TTITLE16=Blue Must Be The Color - Misty Down
TTITLE17=Tired Of Waiting - Jamie Bennet
TTITLE18=The Best For Last - Sunshine
TTITLE19=Then I Meet My Jesus - Kelly Duncan
EXTD=
EXTT0=
EXTT1=
EXTT2=
EXTT3=
EXTT4=
EXTT5=
EXTT6=
EXTT7=
EXTT8=
EXTT9=
EXTT10=
EXTT11=
EXTT12=
EXTT13=
EXTT14=
EXTT15=
EXTT16=
EXTT17=
EXTT18=
EXTT19=
PLAYORDER=
